TITLE "122.500, flac"
FILE "122.500.flac" WAVE

TRACK 01 AUDIO
TITLE "2020.02.06-05:59.28:391863"
INDEX 01 00:28:04

TRACK 02 AUDIO
TITLE "2020.02.06-05:59.31:771834"
INDEX 00 00:30:43
INDEX 01 00:31:33

TRACK 03 AUDIO
TITLE "2020.02.06-05:59.36:891906"
INDEX 00 00:32:63
INDEX 01 00:36:42

TRACK 04 AUDIO
TITLE "2020.02.06-05:59.40:155371"
INDEX 00 00:38:58
INDEX 01 00:39:62

TRACK 05 AUDIO
TITLE "2020.02.06-05:59.43:691788"
INDEX 00 00:43:23
INDEX 01 00:43:27

TRACK 06 AUDIO
TITLE "2020.02.06-05:59.58:711840"
INDEX 00 00:53:00
INDEX 01 00:58:28

TRACK 07 AUDIO
TITLE "2020.02.06-06:00.05:191840"
INDEX 00 01:03:09
INDEX 01 01:04:64

TRACK 08 AUDIO
TITLE "2020.02.06-06:00.38:691779"
INDEX 00 01:15:57
INDEX 01 01:38:27

TRACK 09 AUDIO
TITLE "2020.02.06-06:01.20:651856"
INDEX 00 01:52:39
INDEX 01 02:20:24

TRACK 10 AUDIO
TITLE "2020.02.06-06:01.28:371753"
INDEX 00 02:27:54
INDEX 01 02:28:03

TRACK 11 AUDIO
TITLE "2020.02.06-06:01.53:592046"
INDEX 00 02:31:30
INDEX 01 02:53:19

TRACK 12 AUDIO
TITLE "2020.02.06-06:01.55:211791"
INDEX 00 02:54:33
INDEX 01 02:54:66

TRACK 13 AUDIO
TITLE "2020.02.06-06:02.27:314398"
INDEX 00 03:09:07
INDEX 01 03:26:74

TRACK 14 AUDIO
TITLE "2020.02.06-06:03.28:091932"
INDEX 00 03:34:69
INDEX 01 04:27:57

TRACK 15 AUDIO
TITLE "2020.02.06-06:03.37:431821"
INDEX 00 04:32:63
INDEX 01 04:37:07

TRACK 16 AUDIO
TITLE "2020.02.06-06:03.51:152452"
INDEX 00 04:48:36
INDEX 01 04:50:61

TRACK 17 AUDIO
TITLE "2020.02.06-06:04.20:554963"
INDEX 00 05:19:72
INDEX 01 05:20:17

TRACK 18 AUDIO
TITLE "2020.02.06-06:04.23:352892"
INDEX 00 05:21:23
INDEX 01 05:23:01

TRACK 19 AUDIO
TITLE "2020.02.06-06:05.51:891968"
INDEX 00 05:29:03
INDEX 01 06:51:42

TRACK 20 AUDIO
TITLE "2020.02.06-06:06.01:671760"
INDEX 00 07:01:10
INDEX 01 07:01:25

TRACK 21 AUDIO
TITLE "2020.02.06-06:06.20:671740"
INDEX 00 07:20:13
INDEX 01 07:20:25

TRACK 22 AUDIO
TITLE "2020.02.06-06:06.34:831805"
INDEX 00 07:27:07
INDEX 01 07:34:37

TRACK 23 AUDIO
TITLE "2020.02.06-06:07.12:272014"
INDEX 00 07:46:33
INDEX 01 08:11:70

TRACK 24 AUDIO
TITLE "2020.02.06-06:07.19:112000"
INDEX 00 08:18:40
INDEX 01 08:18:58

TRACK 25 AUDIO
TITLE "2020.02.06-06:08.12:871835"
INDEX 00 08:27:03
INDEX 01 09:12:40

TRACK 26 AUDIO
TITLE "2020.02.06-06:08.23:272332"
INDEX 00 09:14:07
INDEX 01 09:22:70

TRACK 27 AUDIO
TITLE "2020.02.06-06:08.47:912112"
INDEX 00 09:35:57
INDEX 01 09:47:43

TRACK 28 AUDIO
TITLE "2020.02.06-06:08.53:831831"
INDEX 00 09:51:67
INDEX 01 09:53:37

TRACK 29 AUDIO
TITLE "2020.02.06-06:09.20:535660"
INDEX 00 10:03:15
INDEX 01 10:20:15

TRACK 30 AUDIO
TITLE "2020.02.06-06:09.34:451710"
INDEX 00 10:33:21
INDEX 01 10:34:09

TRACK 31 AUDIO
TITLE "2020.02.06-06:10.17:836118"
INDEX 00 10:48:33
INDEX 01 11:17:38

TRACK 32 AUDIO
TITLE "2020.02.06-06:10.58:472967"
INDEX 00 11:30:62
INDEX 01 11:58:10

TRACK 33 AUDIO
TITLE "2020.02.06-06:11.14:731703"
INDEX 00 12:05:73
INDEX 01 12:14:30

TRACK 34 AUDIO
TITLE "2020.02.06-06:11.31:751791"
INDEX 00 12:24:28
INDEX 01 12:31:31

TRACK 35 AUDIO
TITLE "2020.02.06-06:11.42:073197"
INDEX 00 12:37:31
INDEX 01 12:41:55

TRACK 36 AUDIO
TITLE "2020.02.06-06:12.32:874027"
INDEX 00 12:51:12
INDEX 01 13:32:41

TRACK 37 AUDIO
TITLE "2020.02.06-06:12.51:671819"
INDEX 00 13:44:02
INDEX 01 13:51:25

TRACK 38 AUDIO
TITLE "2020.02.06-06:13.28:571831"
INDEX 00 14:18:34
INDEX 01 14:28:18

TRACK 39 AUDIO
TITLE "2020.02.06-06:14.11:153910"
INDEX 00 14:37:51
INDEX 01 15:10:62

TRACK 40 AUDIO
TITLE "2020.02.06-06:15.27:432047"
INDEX 00 15:37:00
INDEX 01 16:27:07

TRACK 41 AUDIO
TITLE "2020.02.06-06:15.31:215971"
INDEX 00 16:30:51
INDEX 01 16:30:66

TRACK 42 AUDIO
TITLE "2020.02.06-06:15.41:891834"
INDEX 00 16:37:11
INDEX 01 16:41:42

TRACK 43 AUDIO
TITLE "2020.02.06-06:16.06:251793"
INDEX 00 16:50:25
INDEX 01 17:05:69

TRACK 44 AUDIO
TITLE "2020.02.06-06:16.13:832067"
INDEX 00 17:08:46
INDEX 01 17:13:37

TRACK 45 AUDIO
TITLE "2020.02.06-06:16.29:073769"
INDEX 00 17:28:25
INDEX 01 17:28:56

TRACK 46 AUDIO
TITLE "2020.02.06-06:16.56:872031"
INDEX 00 17:55:53
INDEX 01 17:56:40

TRACK 47 AUDIO
TITLE "2020.02.06-06:17.25:571895"
INDEX 00 18:24:49
INDEX 01 18:25:18

TRACK 48 AUDIO
TITLE "2020.02.06-06:17.49:311750"
INDEX 00 18:38:01
INDEX 01 18:48:73

TRACK 49 AUDIO
TITLE "2020.02.06-06:18.03:691765"
INDEX 00 19:02:60
INDEX 01 19:03:27

TRACK 50 AUDIO
TITLE "2020.02.06-06:18.17:572393"
INDEX 00 19:16:49
INDEX 01 19:17:18

TRACK 51 AUDIO
TITLE "2020.02.06-06:18.33:211842"
INDEX 00 19:32:34
INDEX 01 19:32:66

TRACK 52 AUDIO
TITLE "2020.02.06-06:18.43:011978"
INDEX 00 19:36:16
INDEX 01 19:42:51

TRACK 53 AUDIO
TITLE "2020.02.06-06:19.00:871716"
INDEX 00 19:57:13
INDEX 01 20:00:40

TRACK 54 AUDIO
TITLE "2020.02.06-06:19.16:355793"
INDEX 00 20:15:22
INDEX 01 20:16:02

TRACK 55 AUDIO
TITLE "2020.02.06-06:19.27:031751"
INDEX 00 20:26:41
INDEX 01 20:26:52

TRACK 56 AUDIO
TITLE "2020.02.06-06:19.38:631733"
INDEX 00 20:37:12
INDEX 01 20:38:22

TRACK 57 AUDIO
TITLE "2020.02.06-06:19.45:694387"
INDEX 00 20:44:72
INDEX 01 20:45:27

TRACK 58 AUDIO
TITLE "2020.02.06-06:19.51:995025"
INDEX 00 20:51:27
INDEX 01 20:51:50

TRACK 59 AUDIO
TITLE "2020.02.06-06:19.54:611808"
INDEX 00 20:54:03
INDEX 01 20:54:21

TRACK 60 AUDIO
TITLE "2020.02.06-06:20.05:171753"
INDEX 00 21:04:13
INDEX 01 21:04:63

TRACK 61 AUDIO
TITLE "2020.02.06-06:20.29:311801"
INDEX 00 21:25:16
INDEX 01 21:28:73

TRACK 62 AUDIO
TITLE "2020.02.06-06:20.46:271856"
INDEX 00 21:45:45
INDEX 01 21:45:70

TRACK 63 AUDIO
TITLE "2020.02.06-06:20.49:276407"
INDEX 00 21:47:40
INDEX 01 21:48:71

TRACK 64 AUDIO
TITLE "2020.02.06-06:20.54:192409"
INDEX 00 21:53:38
INDEX 01 21:53:64

TRACK 65 AUDIO
TITLE "2020.02.06-06:21.22:692047"
INDEX 00 21:57:30
INDEX 01 22:22:27

TRACK 66 AUDIO
TITLE "2020.02.06-06:21.32:191799"
INDEX 00 22:24:34
INDEX 01 22:31:64

TRACK 67 AUDIO
TITLE "2020.02.06-06:21.56:832009"
INDEX 00 22:55:70
INDEX 01 22:56:37

TRACK 68 AUDIO
TITLE "2020.02.06-06:22.00:551739"
INDEX 00 22:59:55
INDEX 01 23:00:16

TRACK 69 AUDIO
TITLE "2020.02.06-06:22.19:813228"
INDEX 00 23:06:51
INDEX 01 23:19:36

TRACK 70 AUDIO
TITLE "2020.02.06-06:22.40:651717"
INDEX 00 23:31:12
INDEX 01 23:40:24

TRACK 71 AUDIO
TITLE "2020.02.06-06:22.50:533750"
INDEX 00 23:49:66
INDEX 01 23:50:15

TRACK 72 AUDIO
TITLE "2020.02.06-06:22.56:691904"
INDEX 00 23:56:21
INDEX 01 23:56:27

TRACK 73 AUDIO
TITLE "2020.02.06-06:23.39:033371"
INDEX 00 24:02:51
INDEX 01 24:38:53

TRACK 74 AUDIO
TITLE "2020.02.06-06:24.01:771827"
INDEX 00 25:00:66
INDEX 01 25:01:33

TRACK 75 AUDIO
TITLE "2020.02.06-06:24.10:471731"
INDEX 00 25:09:69
INDEX 01 25:10:10

TRACK 76 AUDIO
TITLE "2020.02.06-06:24.23:251819"
INDEX 00 25:12:64
INDEX 01 25:22:69

TRACK 77 AUDIO
TITLE "2020.02.06-06:24.30:971792"
INDEX 00 25:28:46
INDEX 01 25:30:48

TRACK 78 AUDIO
TITLE "2020.02.06-06:24.39:811727"
INDEX 00 25:34:13
INDEX 01 25:39:36

TRACK 79 AUDIO
TITLE "2020.02.06-06:24.56:754388"
INDEX 00 25:54:40
INDEX 01 25:56:32

TRACK 80 AUDIO
TITLE "2020.02.06-06:25.09:672380"
INDEX 00 26:06:62
INDEX 01 26:09:25

TRACK 81 AUDIO
TITLE "2020.02.06-06:25.16:851811"
INDEX 00 26:15:57
INDEX 01 26:16:39

TRACK 82 AUDIO
TITLE "2020.02.06-06:25.20:771823"
INDEX 00 26:20:10
INDEX 01 26:20:33

TRACK 83 AUDIO
TITLE "2020.02.06-06:25.31:456671"
INDEX 00 26:22:52
INDEX 01 26:31:09

TRACK 84 AUDIO
TITLE "2020.02.06-06:25.38:457300"
INDEX 00 26:37:30
INDEX 01 26:38:09

TRACK 85 AUDIO
TITLE "2020.02.06-06:25.54:131932"
INDEX 00 26:47:62
INDEX 01 26:53:60

TRACK 86 AUDIO
TITLE "2020.02.06-06:26.14:637360"
INDEX 00 27:06:37
INDEX 01 27:14:23

TRACK 87 AUDIO
TITLE "2020.02.06-06:26.19:511940"
INDEX 00 27:17:32
INDEX 01 27:19:13

TRACK 88 AUDIO
TITLE "2020.02.06-06:26.22:371943"
INDEX 00 27:21:45
INDEX 01 27:22:03

TRACK 89 AUDIO
TITLE "2020.02.06-06:26.32:491922"
INDEX 00 27:26:70
INDEX 01 27:32:12

TRACK 90 AUDIO
TITLE "2020.02.06-06:26.37:211934"
INDEX 00 27:34:69
INDEX 01 27:36:66

TRACK 91 AUDIO
TITLE "2020.02.06-06:26.41:552011"
INDEX 00 27:40:49
INDEX 01 27:41:16

TRACK 92 AUDIO
TITLE "2020.02.06-06:26.56:171847"
INDEX 00 27:52:42
INDEX 01 27:55:63

TRACK 93 AUDIO
TITLE "2020.02.06-06:27.07:751803"
INDEX 00 28:04:18
INDEX 01 28:07:31

TRACK 94 AUDIO
TITLE "2020.02.06-06:27.16:831882"
INDEX 00 28:15:60
INDEX 01 28:16:37

TRACK 95 AUDIO
TITLE "2020.02.06-06:27.34:231873"
INDEX 00 28:21:61
INDEX 01 28:33:67

TRACK 96 AUDIO
TITLE "2020.02.06-06:27.47:794773"
INDEX 00 28:41:63
INDEX 01 28:47:35

TRACK 97 AUDIO
TITLE "2020.02.06-06:28.10:211889"
INDEX 00 28:53:42
INDEX 01 29:09:66

TRACK 98 AUDIO
TITLE "2020.02.06-06:28.31:356688"
INDEX 00 29:29:06
INDEX 01 29:31:02

TRACK 99 AUDIO
TITLE "2020.02.06-06:29.11:431836"
INDEX 00 29:37:26
INDEX 01 30:11:07

TRACK 100 AUDIO
TITLE "2020.02.06-06:29.28:191893"
INDEX 00 30:27:51
INDEX 01 30:27:64

TRACK 101 AUDIO
TITLE "2020.02.06-06:29.31:271703"
INDEX 00 30:30:48
INDEX 01 30:30:70

TRACK 102 AUDIO
TITLE "2020.02.06-06:30.00:731740"
INDEX 00 30:55:57
INDEX 01 31:00:30

TRACK 103 AUDIO
TITLE "2020.02.06-06:30.07:991784"
INDEX 00 31:02:57
INDEX 01 31:07:49

TRACK 104 AUDIO
TITLE "2020.02.06-06:30.35:636155"
INDEX 00 31:31:57
INDEX 01 31:35:23

TRACK 105 AUDIO
TITLE "2020.02.06-06:30.41:832044"
INDEX 00 31:38:56
INDEX 01 31:41:37

TRACK 106 AUDIO
TITLE "2020.02.06-06:30.49:511707"
INDEX 00 31:46:72
INDEX 01 31:49:13

TRACK 107 AUDIO
TITLE "2020.02.06-06:31.04:851950"
INDEX 00 31:56:72
INDEX 01 32:04:39

TRACK 108 AUDIO
TITLE "2020.02.06-06:31.08:397854"
INDEX 00 32:06:06
INDEX 01 32:08:05

TRACK 109 AUDIO
TITLE "2020.02.06-06:31.37:731747"
INDEX 00 32:32:63
INDEX 01 32:37:30

TRACK 110 AUDIO
TITLE "2020.02.06-06:31.40:491739"
INDEX 00 32:38:66
INDEX 01 32:40:12

TRACK 111 AUDIO
TITLE "2020.02.06-06:31.47:551894"
INDEX 00 32:43:55
INDEX 01 32:47:16

TRACK 112 AUDIO
TITLE "2020.02.06-06:32.02:711716"
INDEX 00 32:53:15
INDEX 01 33:02:28

TRACK 113 AUDIO
TITLE "2020.02.06-06:32.10:551729"
INDEX 00 33:07:57
INDEX 01 33:10:16

TRACK 114 AUDIO
TITLE "2020.02.06-06:32.20:511759"
INDEX 00 33:16:67
INDEX 01 33:20:13

TRACK 115 AUDIO
TITLE "2020.02.06-06:32.25:551744"
INDEX 00 33:23:63
INDEX 01 33:25:16

TRACK 116 AUDIO
TITLE "2020.02.06-06:32.43:594165"
INDEX 00 33:28:15
INDEX 01 33:43:20

TRACK 117 AUDIO
TITLE "2020.02.06-06:32.52:632399"
INDEX 00 33:51:27
INDEX 01 33:52:22

TRACK 118 AUDIO
TITLE "2020.02.06-06:33.09:751844"
INDEX 00 34:04:10
INDEX 01 34:09:31

TRACK 119 AUDIO
TITLE "2020.02.06-06:33.34:331865"
INDEX 00 34:24:73
INDEX 01 34:34:00

TRACK 120 AUDIO
TITLE "2020.02.06-06:33.39:791757"
INDEX 00 34:39:30
INDEX 01 34:39:34

TRACK 121 AUDIO
TITLE "2020.02.06-06:34.14:832009"
INDEX 00 34:48:10
INDEX 01 35:14:37

TRACK 122 AUDIO
TITLE "2020.02.06-06:34.26:611885"
INDEX 00 35:20:03
INDEX 01 35:26:21

TRACK 123 AUDIO
TITLE "2020.02.06-06:35.14:012080"
INDEX 00 35:32:13
INDEX 01 36:13:51

TRACK 124 AUDIO
TITLE "2020.02.06-06:35.17:691788"
INDEX 00 36:16:72
INDEX 01 36:17:27

TRACK 125 AUDIO
TITLE "2020.02.06-06:36.14:731901"
INDEX 00 36:20:48
INDEX 01 37:14:30

TRACK 126 AUDIO
TITLE "2020.02.06-06:36.53:511896"
INDEX 00 37:25:39
INDEX 01 37:53:13

TRACK 127 AUDIO
TITLE "2020.02.06-06:37.00:551856"
INDEX 00 37:56:16
INDEX 01 38:00:16

TRACK 128 AUDIO
TITLE "2020.02.06-06:37.27:911879"
INDEX 00 38:21:63
INDEX 01 38:27:43

TRACK 129 AUDIO
TITLE "2020.02.06-06:37.38:152011"
INDEX 00 38:37:27
INDEX 01 38:37:61

TRACK 130 AUDIO
TITLE "2020.02.06-06:38.05:551759"
INDEX 00 39:04:57
INDEX 01 39:05:16

TRACK 131 AUDIO
TITLE "2020.02.06-06:38.21:671872"
INDEX 00 39:16:12
INDEX 01 39:21:25

TRACK 132 AUDIO
TITLE "2020.02.06-06:38.39:751895"
INDEX 00 39:34:36
INDEX 01 39:39:31

TRACK 133 AUDIO
TITLE "2020.02.06-06:38.47:411949"
INDEX 00 39:46:45
INDEX 01 39:47:06

TRACK 134 AUDIO
TITLE "2020.02.06-06:38.55:331861"
INDEX 00 39:52:40
INDEX 01 39:55:00

TRACK 135 AUDIO
TITLE "2020.02.06-06:39.09:194340"
INDEX 00 40:01:27
INDEX 01 40:08:65

TRACK 136 AUDIO
TITLE "2020.02.06-06:39.19:912376"
INDEX 00 40:14:20
INDEX 01 40:19:43

TRACK 137 AUDIO
TITLE "2020.02.06-06:39.32:091765"
INDEX 00 40:27:03
INDEX 01 40:31:57

TRACK 138 AUDIO
TITLE "2020.02.06-06:39.45:311968"
INDEX 00 40:34:27
INDEX 01 40:44:73

TRACK 139 AUDIO
TITLE "2020.02.06-06:40.00:111754"
INDEX 00 40:52:24
INDEX 01 40:59:58

TRACK 140 AUDIO
TITLE "2020.02.06-06:40.23:831912"
INDEX 00 41:05:34
INDEX 01 41:23:37

TRACK 141 AUDIO
TITLE "2020.02.06-06:41.03:491751"
INDEX 00 41:44:61
INDEX 01 42:03:12

TRACK 142 AUDIO
TITLE "2020.02.06-06:41.26:611833"
INDEX 00 42:22:30
INDEX 01 42:26:21

TRACK 143 AUDIO
TITLE "2020.02.06-06:41.34:711707"
INDEX 00 42:33:63
INDEX 01 42:34:28

TRACK 144 AUDIO
TITLE "2020.02.06-06:41.43:711699"
INDEX 00 42:43:10
INDEX 01 42:43:28

TRACK 145 AUDIO
TITLE "2020.02.06-06:41.47:731749"
INDEX 00 42:46:16
INDEX 01 42:47:30

TRACK 146 AUDIO
TITLE "2020.02.06-06:42.06:272334"
INDEX 00 42:54:19
INDEX 01 43:05:70

TRACK 147 AUDIO
TITLE "2020.02.06-06:42.21:832053"
INDEX 00 43:20:00
INDEX 01 43:21:37

TRACK 148 AUDIO
TITLE "2020.02.06-06:42.37:474445"
INDEX 00 43:28:69
INDEX 01 43:37:11

TRACK 149 AUDIO
TITLE "2020.02.06-06:43.38:111764"
INDEX 00 44:26:48
INDEX 01 44:37:58

TRACK 150 AUDIO
TITLE "2020.02.06-06:44.33:991866"
INDEX 00 44:45:12
INDEX 01 45:33:49

TRACK 151 AUDIO
TITLE "2020.02.06-06:44.42:191911"
INDEX 00 45:39:07
INDEX 01 45:41:64

TRACK 152 AUDIO
TITLE "2020.02.06-06:44.46:232107"
INDEX 00 45:44:67
INDEX 01 45:45:67

TRACK 153 AUDIO
TITLE "2020.02.06-06:44.58:851841"
INDEX 00 45:57:73
INDEX 01 45:58:39

TRACK 154 AUDIO
TITLE "2020.02.06-06:45.08:831746"
INDEX 00 46:08:30
INDEX 01 46:08:37

TRACK 155 AUDIO
TITLE "2020.02.06-06:45.14:532084"
INDEX 00 46:11:69
INDEX 01 46:14:15

TRACK 156 AUDIO
TITLE "2020.02.06-06:45.30:055897"
INDEX 00 46:20:70
INDEX 01 46:29:54

TRACK 157 AUDIO
TITLE "2020.02.06-06:45.43:791875"
INDEX 00 46:43:18
INDEX 01 46:43:34

TRACK 158 AUDIO
TITLE "2020.02.06-06:45.57:551777"
INDEX 00 46:50:34
INDEX 01 46:57:16

TRACK 159 AUDIO
TITLE "2020.02.06-06:46.06:555372"
INDEX 00 47:04:01
INDEX 01 47:06:17

TRACK 160 AUDIO
TITLE "2020.02.06-06:46.14:971995"
INDEX 00 47:13:18
INDEX 01 47:14:48

TRACK 161 AUDIO
TITLE "2020.02.06-06:46.17:972131"
INDEX 00 47:17:37
INDEX 01 47:17:48

TRACK 162 AUDIO
TITLE "2020.02.06-06:46.26:511782"
INDEX 00 47:23:67
INDEX 01 47:26:13

TRACK 163 AUDIO
TITLE "2020.02.06-06:47.01:273280"
INDEX 00 47:33:09
INDEX 01 48:00:71

TRACK 164 AUDIO
TITLE "2020.02.06-06:47.05:231860"
INDEX 00 48:04:33
INDEX 01 48:04:67

TRACK 165 AUDIO
TITLE "2020.02.06-06:48.36:972076"
INDEX 00 48:29:31
INDEX 01 49:36:48

TRACK 166 AUDIO
TITLE "2020.02.06-06:49.57:071995"
INDEX 00 49:48:16
INDEX 01 50:56:55

TRACK 167 AUDIO
TITLE "2020.02.06-06:50.01:954769"
INDEX 00 51:01:39
INDEX 01 51:01:47

TRACK 168 AUDIO
TITLE "2020.02.06-06:50.06:151904"
INDEX 00 51:03:26
INDEX 01 51:05:61

TRACK 169 AUDIO
TITLE "2020.02.06-06:50.24:691804"
INDEX 00 51:23:57
INDEX 01 51:24:27

TRACK 170 AUDIO
TITLE "2020.02.06-06:51.20:171926"
INDEX 00 52:05:36
INDEX 01 52:19:63

TRACK 171 AUDIO
TITLE "2020.02.06-06:53.00:831850"
INDEX 00 52:24:33
INDEX 01 54:00:37

TRACK 172 AUDIO
TITLE "2020.02.06-06:53.10:796853"
INDEX 00 54:06:46
INDEX 01 54:10:35

TRACK 173 AUDIO
TITLE "2020.02.06-06:53.18:011947"
INDEX 00 54:15:38
INDEX 01 54:17:51

TRACK 174 AUDIO
TITLE "2020.02.06-06:53.21:292025"
INDEX 00 54:20:34
INDEX 01 54:20:72

TRACK 175 AUDIO
TITLE "2020.02.06-06:53.36:972949"
INDEX 00 54:36:15
INDEX 01 54:36:48

TRACK 176 AUDIO
TITLE "2020.02.06-06:53.50:653455"
INDEX 00 54:48:54
INDEX 01 54:50:24

TRACK 177 AUDIO
TITLE "2020.02.06-06:53.58:814137"
INDEX 00 54:55:44
INDEX 01 54:58:36

TRACK 178 AUDIO
TITLE "2020.02.06-06:54.39:272058"
INDEX 00 55:08:27
INDEX 01 55:38:70

TRACK 179 AUDIO
TITLE "2020.02.06-06:54.52:352044"
INDEX 00 55:48:66
INDEX 01 55:52:01

TRACK 180 AUDIO
TITLE "2020.02.06-06:54.59:011956"
INDEX 00 55:56:00
INDEX 01 55:58:51

TRACK 181 AUDIO
TITLE "2020.02.06-06:55.08:551786"
INDEX 00 56:02:10
INDEX 01 56:08:16

TRACK 182 AUDIO
TITLE "2020.02.06-06:55.17:996033"
INDEX 00 56:13:40
INDEX 01 56:17:50

TRACK 183 AUDIO
TITLE "2020.02.06-06:55.30:051822"
INDEX 00 56:25:60
INDEX 01 56:29:54

TRACK 184 AUDIO
TITLE "2020.02.06-06:55.41:852063"
INDEX 00 56:39:67
INDEX 01 56:41:39

TRACK 185 AUDIO
TITLE "2020.02.06-06:56.49:491871"
INDEX 00 56:54:39
INDEX 01 57:49:12

TRACK 186 AUDIO
TITLE "2020.02.06-06:57.10:094882"
INDEX 00 58:08:61
INDEX 01 58:09:57

TRACK 187 AUDIO
TITLE "2020.02.06-06:57.19:311813"
INDEX 00 58:16:69
INDEX 01 58:18:73

TRACK 188 AUDIO
TITLE "2020.02.06-06:57.39:273318"
INDEX 00 58:37:46
INDEX 01 58:38:71

TRACK 189 AUDIO
TITLE "2020.02.06-06:58.21:595937"
INDEX 00 58:56:54
INDEX 01 59:21:20

TRACK 190 AUDIO
TITLE "2020.02.06-06:58.34:414203"
INDEX 00 59:22:60
INDEX 01 59:34:06

TRACK 191 AUDIO
TITLE "2020.02.06-06:59.24:814923"
INDEX 00 59:45:14
INDEX 01 60:24:36

TRACK 192 AUDIO
TITLE "2020.02.06-06:59.32:734691"
INDEX 00 60:30:29
INDEX 01 60:32:30

TRACK 193 AUDIO
TITLE "2020.02.06-07:00.09:052107"
INDEX 00 60:38:09
INDEX 01 61:08:54

TRACK 194 AUDIO
TITLE "2020.02.06-07:00.27:974639"
INDEX 00 61:23:36
INDEX 01 61:27:48

TRACK 195 AUDIO
TITLE "2020.02.06-07:01.14:291758"
INDEX 00 61:44:15
INDEX 01 62:13:72

